<?xml version="1.0" encoding="UTF-8"?>
<svg version="1.1" xmlns="http://www.w3.org/2000/svg" width="772" height="783">
<path d="M0 0 C5.48332769 4.57105419 10.56298829 9.42594541 15.59741211 14.48388672 C16.84252563 15.7287812 16.84252563 15.7287812 18.11279297 16.99882507 C20.83668894 19.72341379 23.55703263 22.45151995 26.27734375 25.1796875 C28.17284179 27.07705199 30.06853607 28.97421834 31.9644928 30.87112427 C36.43222586 35.34195434 40.89740564 39.81532534 45.36165386 44.28963482 C50.44799929 49.38719227 55.53721486 54.48188019 60.62666309 59.57633948 C71.08761876 70.04772258 81.54499952 80.52267093 92 91 C87.45561817 96.44923017 82.63534863 101.50183857 77.60791016 106.50561523 C76.78773407 107.32593735 75.96755798 108.14625946 75.12252808 108.99143982 C72.43040493 111.6828703 69.73476475 114.37074847 67.0390625 117.05859375 C65.16411824 118.93167153 63.28937215 120.80494556 61.41488647 122.67848206 C56.99718043 127.09309132 52.57693357 131.50514725 48.15574777 135.91627127 C43.11864834 140.94215801 38.08441902 145.97091548 33.05041814 150.99990547 C22.70344935 161.33644733 12.35291534 171.66941416 2 182 C4.69010096 187.35796319 8.90871277 191.18187787 13.11157227 195.35449219 C13.93785126 196.18266953 14.76413025 197.01084686 15.615448 197.86412048 C18.34424058 200.59661389 21.08015988 203.32184723 23.81640625 206.046875 C25.71341391 207.94269059 27.61007457 209.8388476 29.5063324 211.7354126 C33.47827702 215.70642204 37.45406817 219.67354664 41.43237305 223.63818359 C46.03402414 228.2240837 50.63040187 232.81521532 55.22381741 237.40936351 C59.64397452 241.83013043 64.06697942 246.24803593 68.4915905 250.66434479 C70.37453332 252.54409771 72.25686428 254.42446374 74.13858223 256.30544281 C76.76248615 258.92718823 79.38965053 261.54561975 82.01782227 264.16308594 C82.80073135 264.94644821 83.58364044 265.72981049 84.39027405 266.53691101 C85.46069946 267.60093895 85.46069946 267.60093895 86.55274963 268.6864624 C87.17382882 269.30586575 87.79490801 269.92526909 88.43480778 270.56344223 C89.95786132 272.09364775 89.95786132 272.09364775 92 273 C90.58034233 276.22675015 88.87053341 278.37698922 86.38070679 280.85980225 C85.62909775 281.61416061 84.87748871 282.36851898 84.10310364 283.14573669 C82.86556587 284.37248863 82.86556587 284.37248863 81.60302734 285.62402344 C80.73466751 286.49267532 79.86630768 287.36132721 78.97163391 288.25630188 C76.59317713 290.63360473 74.21037174 293.00638497 71.8255229 295.37726498 C69.33287405 297.85740465 66.8458942 300.34321567 64.35830688 302.82843018 C59.64850647 307.53201638 54.93363139 312.23048141 50.21691096 316.92712712 C44.84663682 322.27504045 39.48204593 327.62863925 34.11792445 332.98272276 C23.08492704 343.9948195 12.04481573 354.99975596 1 366 C-4.48332769 361.42894581 -9.56298829 356.57405459 -14.59741211 351.51611328 C-15.42748779 350.68618362 -16.25756348 349.85625397 -17.11279297 349.00117493 C-19.83668894 346.27658621 -22.55703263 343.54848005 -25.27734375 340.8203125 C-27.17284179 338.92294801 -29.06853607 337.02578166 -30.9644928 335.12887573 C-35.43222586 330.65804566 -39.89740564 326.18467466 -44.36165386 321.71036518 C-49.44799929 316.61280773 -54.53721486 311.51811981 -59.62666309 306.42366052 C-70.08761876 295.95227742 -80.54499952 285.47732907 -91 275 C-86.45561817 269.55076983 -81.63534863 264.49816143 -76.60791016 259.49438477 C-75.78773407 258.67406265 -74.96755798 257.85374054 -74.12252808 257.00856018 C-71.43040493 254.3171297 -68.73476475 251.62925153 -66.0390625 248.94140625 C-64.16411824 247.06832847 -62.28937215 245.19505444 -60.41488647 243.32151794 C-55.99718043 238.90690868 -51.57693357 234.49485275 -47.15574777 230.08372873 C-42.11864834 225.05784199 -37.08441902 220.02908452 -32.05041814 215.00009453 C-21.70344935 204.66355267 -11.35291534 194.33058584 -1 184 C-2.41392648 180.79177828 -4.10493631 178.64749941 -6.58132935 176.17816162 C-7.32452423 175.43221741 -8.06771912 174.68627319 -8.83343506 173.91772461 C-9.6491095 173.10924072 -10.46478394 172.30075684 -11.30517578 171.46777344 C-12.16378204 170.60887512 -13.02238831 169.74997681 -13.90701294 168.86505127 C-16.25861144 166.51460664 -18.61455732 164.16868541 -20.97254801 161.82466412 C-23.43716991 159.372552 -25.89612225 156.91476793 -28.35568237 154.45758057 C-33.01235887 149.8071181 -37.67410974 145.16177703 -42.33770645 140.51825547 C-47.64752248 135.23080081 -52.9516548 129.93766016 -58.25531793 124.64403486 C-69.16390116 113.75635189 -80.07959806 102.87582949 -91 92 C-86.42894581 86.51667231 -81.57405459 81.43701171 -76.51611328 76.40258789 C-75.2712188 75.15747437 -75.2712188 75.15747437 -74.00117493 73.88720703 C-71.27658621 71.16331106 -68.54848005 68.44296737 -65.8203125 65.72265625 C-63.92294801 63.82715821 -62.02578166 61.93146393 -60.12887573 60.0355072 C-55.65804566 55.56777414 -51.18467466 51.10259436 -46.71036518 46.63834614 C-41.61280773 41.55200071 -36.51811981 36.46278514 -31.42366052 31.37333691 C-20.95227742 20.91238124 -10.47732907 10.45500048 0 0 Z " fill="#FEFEFE" transform="translate(610,209)"/>
<path d="M0 0 C5.48332769 4.57105419 10.56298829 9.42594541 15.59741211 14.48388672 C16.84252563 15.7287812 16.84252563 15.7287812 18.11279297 16.99882507 C20.83668894 19.72341379 23.55703263 22.45151995 26.27734375 25.1796875 C28.17284179 27.07705199 30.06853607 28.97421834 31.9644928 30.87112427 C36.43222586 35.34195434 40.89740564 39.81532534 45.36165386 44.28963482 C50.44799929 49.38719227 55.53721486 54.48188019 60.62666309 59.57633948 C71.08761876 70.04772258 81.54499952 80.52267093 92 91 C87.45561817 96.44923017 82.63534863 101.50183857 77.60791016 106.50561523 C76.78773407 107.32593735 75.96755798 108.14625946 75.12252808 108.99143982 C72.43040493 111.6828703 69.73476475 114.37074847 67.0390625 117.05859375 C65.16411824 118.93167153 63.28937215 120.80494556 61.41488647 122.67848206 C56.99718043 127.09309132 52.57693357 131.50514725 48.15574777 135.91627127 C43.11864834 140.94215801 38.08441902 145.97091548 33.05041814 150.99990547 C22.70344935 161.33644733 12.35291534 171.66941416 2 182 C3.41392648 185.20822172 5.10493631 187.35250059 7.58132935 189.82183838 C8.32452423 190.56778259 9.06771912 191.31372681 9.83343506 192.08227539 C10.6491095 192.89075928 11.46478394 193.69924316 12.30517578 194.53222656 C13.16378204 195.39112488 14.02238831 196.25002319 14.90701294 197.13494873 C17.25861144 199.48539336 19.61455732 201.83131459 21.97254801 204.17533588 C24.43716991 206.627448 26.89612225 209.08523207 29.35568237 211.54241943 C34.01235887 216.1928819 38.67410974 220.83822297 43.33770645 225.48174453 C48.64752248 230.76919919 53.9516548 236.06233984 59.25531793 241.35596514 C70.16390116 252.24364811 81.07959806 263.12417051 92 274 C87.42894581 279.48332769 82.57405459 284.56298829 77.51611328 289.59741211 C76.68618362 290.42748779 75.85625397 291.25756348 75.00117493 292.11279297 C72.27658621 294.83668894 69.54848005 297.55703263 66.8203125 300.27734375 C64.92294801 302.17284179 63.02578166 304.06853607 61.12887573 305.9644928 C56.65804566 310.43222586 52.18467466 314.89740564 47.71036518 319.36165386 C42.61280773 324.44799929 37.51811981 329.53721486 32.42366052 334.62666309 C21.95227742 345.08761876 11.47732907 355.54499952 1 366 C-4.47425075 361.43284733 -9.55929575 356.58893449 -14.59741211 351.54785156 C-15.84252563 350.30777596 -15.84252563 350.30777596 -17.11279297 349.04264832 C-19.83694964 346.3279392 -22.55736792 343.60952263 -25.27734375 340.890625 C-26.69366013 339.47671018 -28.10997744 338.06279628 -29.52642065 336.64900851 C-33.96802212 332.21551656 -38.40680253 327.77921368 -42.84399414 323.34130859 C-47.42305254 318.76164683 -52.00768891 314.18762145 -56.59490961 309.61613679 C-60.53912937 305.68496634 -64.47951097 301.74997693 -68.41689116 297.81195617 C-70.76638332 295.46220871 -73.11786328 293.11451324 -75.47230339 290.76972198 C-78.08906046 288.16269583 -80.69948484 285.54949093 -83.30834961 282.93457031 C-84.09216507 282.15637436 -84.87598053 281.37817841 -85.68354797 280.57640076 C-86.38863495 279.86711929 -87.09372192 279.15783783 -87.82017517 278.42706299 C-88.43790267 277.80988026 -89.05563017 277.19269753 -89.69207668 276.55681229 C-91 275 -91 275 -91 273 C-89.54277706 271.56110764 -89.54277706 271.56110764 -87.52049255 269.88641357 C-83.02463818 266.06025126 -78.84368839 261.9915522 -74.67211914 257.81738281 C-73.88251801 257.03114029 -73.09291687 256.24489777 -72.27938843 255.43482971 C-69.69534854 252.86021576 -67.11502688 250.28191626 -64.53515625 247.703125 C-62.7330189 245.90420326 -60.93080727 244.10535593 -59.12852478 242.30657959 C-55.36539937 238.54942245 -51.60430574 234.79024559 -47.84448242 231.02978516 C-43.49888574 226.68358504 -39.14771072 222.34302478 -34.79395396 218.00500035 C-30.59496404 213.82064247 -26.40149305 209.6307846 -22.21011162 205.43880463 C-20.42906326 203.6589386 -18.64638792 201.88069912 -16.86207771 200.10410309 C-14.37733968 197.62911383 -11.89895959 195.14792826 -9.42211914 192.66503906 C-8.68087296 191.92941238 -7.93962677 191.19378571 -7.17591858 190.43586731 C-6.50455872 189.76031296 -5.83319885 189.08475861 -5.14149475 188.38873291 C-4.55548524 187.80326817 -3.96947573 187.21780342 -3.36570835 186.61459732 C-1.7710857 184.93196817 -1.7710857 184.93196817 -1 182 C-30.7 152.3 -60.4 122.6 -91 92 C-84.25 84.125 -84.25 84.125 -81.05154419 80.93128967 C-80.32809311 80.20646393 -79.60464203 79.48163818 -78.85926819 78.73484802 C-77.69940651 77.58037926 -77.69940651 77.58037926 -76.51611328 76.40258789 C-75.2712188 75.15747437 -75.2712188 75.15747437 -74.00117493 73.88720703 C-71.27658621 71.16331106 -68.54848005 68.44296737 -65.8203125 65.72265625 C-63.92294801 63.82715821 -62.02578166 61.93146393 -60.12887573 60.0355072 C-55.65804566 55.56777414 -51.18467466 51.10259436 -46.71036518 46.63834614 C-41.61280773 41.55200071 -36.51811981 36.46278514 -31.42366052 31.37333691 C-20.95227742 20.91238124 -10.47732907 10.45500048 0 0 Z " fill="#FEFEFE" transform="translate(163,209)"/>
<path d="M0 0 C5.44923017 4.54438183 10.50183857 9.36465137 15.50561523 14.39208984 C16.7360984 15.62235397 16.7360984 15.62235397 17.99143982 16.87747192 C20.6828703 19.56959507 23.37074847 22.26523525 26.05859375 24.9609375 C27.93167153 26.83588176 29.80494556 28.71062785 31.67848206 30.58511353 C36.09309132 35.00281957 40.50514725 39.42306643 44.91627127 43.84425223 C49.94215801 48.88135166 54.97091548 53.91558098 59.99990547 58.94958186 C70.33644733 69.29655065 80.66941416 79.64708466 91 90 C94.20822172 88.58607352 96.35250059 86.89506369 98.82183838 84.41867065 C99.56778259 83.67547577 100.31372681 82.93228088 101.08227539 82.16656494 C101.89075928 81.3508905 102.69924316 80.53521606 103.53222656 79.69482422 C104.39112488 78.83621796 105.25002319 77.97761169 106.13494873 77.09298706 C108.48539336 74.74138856 110.83131459 72.38544268 113.17533588 70.02745199 C115.627448 67.56283009 118.08523207 65.10387775 120.54241943 62.64431763 C125.1928819 57.98764113 129.83822297 53.32589026 134.48174453 48.66229355 C139.76919919 43.35247752 145.06233984 38.0483452 150.35596514 32.74468207 C161.24364811 21.83609884 172.12417051 10.92040194 183 0 C188.48332769 4.57105419 193.56298829 9.42594541 198.59741211 14.48388672 C199.84252563 15.7287812 199.84252563 15.7287812 201.11279297 16.99882507 C203.83668894 19.72341379 206.55703263 22.45151995 209.27734375 25.1796875 C211.17284179 27.07705199 213.06853607 28.97421834 214.9644928 30.87112427 C219.43222586 35.34195434 223.89740564 39.81532534 228.36165386 44.28963482 C233.44799929 49.38719227 238.53721486 54.48188019 243.62666309 59.57633948 C254.08761876 70.04772258 264.54499952 80.52267093 275 91 C270.42894581 96.48332769 265.57405459 101.56298829 260.51611328 106.59741211 C259.68618362 107.42748779 258.85625397 108.25756348 258.00117493 109.11279297 C255.27658621 111.83668894 252.54848005 114.55703263 249.8203125 117.27734375 C247.92294801 119.17284179 246.02578166 121.06853607 244.12887573 122.9644928 C239.65804566 127.43222586 235.18467466 131.89740564 230.71036518 136.36165386 C225.61280773 141.44799929 220.51811981 146.53721486 215.42366052 151.62666309 C204.95227742 162.08761876 194.47732907 172.54499952 184 183 C178.59340022 178.49214476 173.58723295 173.71374234 168.63378906 168.71557617 C167.42516457 167.50235184 167.42516457 167.50235184 166.19212341 166.26461792 C164.45376542 164.51913937 162.71653497 162.7725373 160.98032379 161.02492332 C158.23447455 158.2616203 155.48504032 155.50193149 152.73455811 152.74324036 C144.9186903 144.90331328 137.10886877 137.05737898 129.30322266 129.20727539 C124.52097023 124.39787245 119.73347796 119.59373031 114.94316864 114.79235268 C113.11837022 112.96133387 111.29547304 111.1284183 109.47449493 109.29360008 C106.93704252 106.7370195 104.39357108 104.18657686 101.84863281 101.63745117 C101.09430466 100.87436142 100.3399765 100.11127167 99.56278992 99.32505798 C98.87040726 98.63397949 98.1780246 97.942901 97.46466064 97.23088074 C96.86444721 96.6275249 96.26423378 96.02416906 95.64583206 95.40252972 C93.94075376 93.77212109 93.94075376 93.77212109 91 93 C61.3 122.7 31.6 152.4 1 183 C-6.875 176.25 -6.875 176.25 -10.06871033 173.05154419 C-10.79353607 172.32809311 -11.51836182 171.60464203 -12.26515198 170.85926819 C-13.03479782 170.08602707 -13.80444366 169.31278595 -14.59741211 168.51611328 C-15.42748779 167.68618362 -16.25756348 166.85625397 -17.11279297 166.00117493 C-19.83668894 163.27658621 -22.55703263 160.54848005 -25.27734375 157.8203125 C-27.17284179 155.92294801 -29.06853607 154.02578166 -30.9644928 152.12887573 C-35.43222586 147.65804566 -39.89740564 143.18467466 -44.36165386 138.71036518 C-49.44799929 133.61280773 -54.53721486 128.51811981 -59.62666309 123.42366052 C-70.08761876 112.95227742 -80.54499952 102.47732907 -91 92 C-86.42894581 86.51667231 -81.57405459 81.43701171 -76.51611328 76.40258789 C-75.2712188 75.15747437 -75.2712188 75.15747437 -74.00117493 73.88720703 C-71.27658621 71.16331106 -68.54848005 68.44296737 -65.8203125 65.72265625 C-63.92294801 63.82715821 -62.02578166 61.93146393 -60.12887573 60.0355072 C-55.65804566 55.56777414 -51.18467466 51.10259436 -46.71036518 46.63834614 C-41.61280773 41.55200071 -36.51811981 36.46278514 -31.42366052 31.37333691 C-20.95227742 20.91238124 -10.47732907 10.45500048 0 0 Z " fill="#FEFEFE" transform="translate(295,524)"/>
<path d="M0 0 C3.19195666 1.40705659 5.31274224 3.07366838 7.75695801 5.5500946 C8.48870743 6.2863205 9.22045685 7.02254639 9.97438049 7.78108215 C10.76722946 8.5889769 11.56007843 9.39687164 12.37695312 10.22924805 C13.2196727 11.07970703 14.06239227 11.93016602 14.9306488 12.80639648 C17.23758109 15.13559441 19.54016092 17.46900736 21.84168053 19.80355048 C24.25173035 22.24473741 26.6694587 24.67828615 29.08703613 27.11201477 C37.31889041 35.40143312 45.54057895 43.70084439 53.74755859 52.01489258 C58.28263985 56.6089784 62.82656956 61.19411851 67.38046026 65.76956207 C69.78978438 68.19114399 72.19405012 70.61733312 74.58729553 73.05481529 C77.25464545 75.767609 79.93684811 78.46482388 82.62304688 81.15893555 C83.41589584 81.97290298 84.20874481 82.78687042 85.02561951 83.62550354 C85.75736893 84.35326996 86.48911835 85.08103638 87.24304199 85.83085632 C87.87572746 86.4707484 88.50841293 87.11064047 89.16027069 87.76992321 C90.90828598 89.20087489 90.90828598 89.20087489 92.99594498 88.91438866 C95.44889032 87.79518516 96.91751083 86.45141412 98.82183838 84.53892517 C99.56778259 83.79710495 100.31372681 83.05528473 101.08227539 82.29098511 C101.89075928 81.47171539 102.69924316 80.65244568 103.53222656 79.80834961 C104.39112488 78.94988937 105.25002319 78.09142914 106.13494873 77.20695496 C108.48724274 74.85292877 110.83268165 72.49244204 113.17533588 70.12884593 C115.62566169 67.65976911 118.08448312 65.19918269 120.54241943 62.73768616 C125.19489869 58.07588182 129.83967763 53.40648278 134.48174453 48.73431259 C139.76722687 43.41530071 145.06122808 38.10480266 150.35596514 32.79500568 C161.24682271 21.87278858 172.1269226 10.93991915 183 0 C188.40791503 4.5104545 193.42145014 9.28952253 198.38208008 14.28442383 C199.18943604 15.09324005 199.99679199 15.90205627 200.82861328 16.73538208 C202.5702747 18.4808314 204.31078049 20.22743445 206.05024147 21.97507668 C208.80037696 24.73802062 211.55366384 27.49778902 214.30778503 30.25675964 C220.14567376 36.10570031 225.9792921 41.95889167 231.8125 47.8125 C238.58973307 54.61338409 245.36863427 61.41258872 252.1517086 68.20764732 C254.86927892 70.93171851 257.58383081 73.65877375 260.29829407 76.38594055 C261.95367992 78.04495666 263.60920505 79.7038338 265.26489258 81.36254883 C266.40177773 82.50718346 266.40177773 82.50718346 267.56163025 83.67494202 C268.25263824 84.36602051 268.94364624 85.057099 269.65559387 85.76911926 C270.2567291 86.3724751 270.85786432 86.97583094 271.47721577 87.59747028 C272.96550899 89.09816913 272.96550899 89.09816913 275 90 C273.58607352 93.20822172 271.89506369 95.35250059 269.41867065 97.82183838 C268.67547577 98.56778259 267.93228088 99.31372681 267.16656494 100.08227539 C266.3508905 100.89075928 265.53521606 101.69924316 264.69482422 102.53222656 C263.83621796 103.39112488 262.97761169 104.25002319 262.09298706 105.13494873 C259.74138856 107.48539336 257.38544268 109.83131459 255.02745199 112.17533588 C252.56283009 114.627448 250.10387775 117.08523207 247.64431763 119.54241943 C242.98764113 124.1928819 238.32589026 128.83822297 233.66229355 133.48174453 C228.35247752 138.76919919 223.0483452 144.06233984 217.74468207 149.35596514 C206.83609884 160.24364811 195.92040194 171.12417051 185 182 C181.80804334 180.59294341 179.68725776 178.92633162 177.24304199 176.4499054 C176.51129257 175.7136795 175.77954315 174.97745361 175.02561951 174.21891785 C174.23277054 173.4110231 173.43992157 172.60312836 172.62304688 171.77075195 C171.7803273 170.92029297 170.93760773 170.06983398 170.0693512 169.19360352 C167.76241891 166.86440559 165.45983908 164.53099264 163.15831947 162.19644952 C160.74826965 159.75526259 158.3305413 157.32171385 155.91296387 154.88798523 C147.68110959 146.59856688 139.45942105 138.29915561 131.25244141 129.98510742 C126.71736015 125.3910216 122.17343044 120.80588149 117.61953974 116.23043793 C115.21021562 113.80885601 112.80594988 111.38266688 110.41270447 108.94518471 C107.74535455 106.232391 105.06315189 103.53517612 102.37695312 100.84106445 C101.58410416 100.02709702 100.79125519 99.21312958 99.97438049 98.37449646 C99.24263107 97.64673004 98.51088165 96.91896362 97.75695801 96.16914368 C97.12427254 95.5292516 96.49158707 94.88935953 95.83972931 94.23007679 C94.09171402 92.79912511 94.09171402 92.79912511 92.00405502 93.08561134 C89.55110968 94.20481484 88.08248917 95.54858588 86.17816162 97.46107483 C85.43221741 98.20289505 84.68627319 98.94471527 83.91772461 99.70901489 C83.10924072 100.52828461 82.30075684 101.34755432 81.46777344 102.19165039 C80.60887512 103.05011063 79.74997681 103.90857086 78.86505127 104.79304504 C76.51275726 107.14707123 74.16731835 109.50755796 71.82466412 111.87115407 C69.37433831 114.34023089 66.91551688 116.80081731 64.45758057 119.26231384 C59.80510131 123.92411818 55.16032237 128.59351722 50.51825547 133.26568741 C45.23277313 138.58469929 39.93877192 143.89519734 34.64403486 149.20499432 C23.75317729 160.12721142 12.8730774 171.06008085 2 182 C-1.20822172 180.58607352 -3.35250059 178.89506369 -5.82183838 176.41867065 C-6.56778259 175.67547577 -7.31372681 174.93228088 -8.08227539 174.16656494 C-8.89075928 173.3508905 -9.69924316 172.53521606 -10.53222656 171.69482422 C-11.39112488 170.83621796 -12.25002319 169.97761169 -13.13494873 169.09298706 C-15.48539336 166.74138856 -17.83131459 164.38544268 -20.17533588 162.02745199 C-22.627448 159.56283009 -25.08523207 157.10387775 -27.54241943 154.64431763 C-32.1928819 149.98764113 -36.83822297 145.32589026 -41.48174453 140.66229355 C-46.76919919 135.35247752 -52.06233984 130.0483452 -57.35596514 124.74468207 C-68.24364811 113.83609884 -79.12417051 102.92040194 -90 92 C-88.58607352 88.79177828 -86.89506369 86.64749941 -84.41867065 84.17816162 C-83.67547577 83.43221741 -82.93228088 82.68627319 -82.16656494 81.91772461 C-81.3508905 81.10924072 -80.53521606 80.30075684 -79.69482422 79.46777344 C-78.40691483 78.17942596 -78.40691483 78.17942596 -77.09298706 76.86505127 C-74.74138856 74.51460664 -72.38544268 72.16868541 -70.02745199 69.82466412 C-67.56283009 67.372552 -65.10387775 64.91476793 -62.64431763 62.45758057 C-57.98764113 57.8071181 -53.32589026 53.16177703 -48.66229355 48.51825547 C-43.35247752 43.23080081 -38.0483452 37.93766016 -32.74468207 32.64403486 C-21.83609884 21.75635189 -10.92040194 10.87582949 0 0 Z " fill="#FEFEFE" transform="translate(295,77)"/>
<path d="M0 0 C3.20822172 1.41392648 5.35250059 3.10493631 7.82183838 5.58132935 C8.56778259 6.32452423 9.31372681 7.06771912 10.08227539 7.83343506 C10.89075928 8.6491095 11.69924316 9.46478394 12.53222656 10.30517578 C13.82057404 11.59308517 13.82057404 11.59308517 15.13494873 12.90701294 C17.48539336 15.25861144 19.83131459 17.61455732 22.17533588 19.97254801 C24.627448 22.43716991 27.08523207 24.89612225 29.54241943 27.35568237 C34.1928819 32.01235887 38.83822297 36.67410974 43.48174453 41.33770645 C48.76919919 46.64752248 54.06233984 51.9516548 59.35596514 57.25531793 C70.24364811 68.16390116 81.12417051 79.07959806 92 90 C90.58607352 93.20822172 88.89506369 95.35250059 86.41867065 97.82183838 C85.67547577 98.56778259 84.93228088 99.31372681 84.16656494 100.08227539 C83.3508905 100.89075928 82.53521606 101.69924316 81.69482422 102.53222656 C80.83621796 103.39112488 79.97761169 104.25002319 79.09298706 105.13494873 C76.74138856 107.48539336 74.38544268 109.83131459 72.02745199 112.17533588 C69.56283009 114.627448 67.10387775 117.08523207 64.64431763 119.54241943 C59.98764113 124.1928819 55.32589026 128.83822297 50.66229355 133.48174453 C45.35247752 138.76919919 40.0483452 144.06233984 34.74468207 149.35596514 C23.83609884 160.24364811 12.92040194 171.12417051 2 182 C-1.20822172 180.58607352 -3.35250059 178.89506369 -5.82183838 176.41867065 C-6.56778259 175.67547577 -7.31372681 174.93228088 -8.08227539 174.16656494 C-8.89075928 173.3508905 -9.69924316 172.53521606 -10.53222656 171.69482422 C-11.39112488 170.83621796 -12.25002319 169.97761169 -13.13494873 169.09298706 C-15.48539336 166.74138856 -17.83131459 164.38544268 -20.17533588 162.02745199 C-22.627448 159.56283009 -25.08523207 157.10387775 -27.54241943 154.64431763 C-32.1928819 149.98764113 -36.83822297 145.32589026 -41.48174453 140.66229355 C-46.76919919 135.35247752 -52.06233984 130.0483452 -57.35596514 124.74468207 C-68.24364811 113.83609884 -79.12417051 102.92040194 -90 92 C-88.58607352 88.79177828 -86.89506369 86.64749941 -84.41867065 84.17816162 C-83.67547577 83.43221741 -82.93228088 82.68627319 -82.16656494 81.91772461 C-81.3508905 81.10924072 -80.53521606 80.30075684 -79.69482422 79.46777344 C-78.40691483 78.17942596 -78.40691483 78.17942596 -77.09298706 76.86505127 C-74.74138856 74.51460664 -72.38544268 72.16868541 -70.02745199 69.82466412 C-67.56283009 67.372552 -65.10387775 64.91476793 -62.64431763 62.45758057 C-57.98764113 57.8071181 -53.32589026 53.16177703 -48.66229355 48.51825547 C-43.35247752 43.23080081 -38.0483452 37.93766016 -32.74468207 32.64403486 C-21.83609884 21.75635189 -10.92040194 10.87582949 0 0 Z " fill="#FEFEFE" transform="translate(387,302)"/>
</svg>
